<svg xmlns="http://www.w3.org/2000/svg" viewBox="0 0 100 100">
  <rect width="100" height="100" rx="20" fill="#0a0a0a" />
  <g transform="translate(15, 15) scale(2.9)" fill="none" stroke="#34d399" stroke-width="2.5" stroke-linecap="round" stroke-linejoin="round">
    <path d="m14.4 14.4-4.8-4.8"/>
    <path d="M18.6 18.6 5.4 5.4"/>
    <path d="M20.7 20.7 18 18"/>
    <path d="M6 3.3 3.3 6"/>
    <path d="m19 11 3.9 3.9a2.12 2.12 0 0 1 0 3L20 20.8l-1.4-1.4"/>
    <path d="m3.2 4 1.4 1.4"/>
    <path d="M11 19 7.1 22.9a2.12 2.12 0 0 1-3 0L1.2 20"/>
    <path d="m15.4 15.4 1.4-1.4"/>
    <path d="m8.6 8.6-1.4 1.4"/>
  </g>
</svg>